# xmcd
#
# Track frame offsets:
#	150
#	31885
#	45619
#	61217
#	74436
#	92835
#	109015
#	120908
#	136378
#	147524
#	162271
#
# Disc length: 2422 seconds
#
# Revision: 1
# Processed by: cddbd v1.5.2PL0 Copyright (c) Steve Scherf et al.
# Submitted via: audiograbber 1.83.01
#
DISCID=9609740b
DTITLE=Ronnie Milsap - Out Where The Bright Lights Are Glowing
DYEAR=1981
DGENRE=Country
TTITLE0=Out Where The Bright Lights Are Glowing
TTITLE1=Pride Goes Before A Fall
TTITLE2=I'm Beginning To Forget You
TTITLE3=He'll Have To Go
TTITLE4=I'm Getting Better
TTITLE5=Am I Losing You
TTITLE6=I Won't Forget You
TTITLE7=I Guess I'm Crazy
TTITLE8=When Two Worlds Collide
TTITLE9=Missing You
TTITLE10=Dear Friend
EXTD=
EXTT0=
EXTT1=
EXTT2=
EXTT3=
EXTT4=
EXTT5=
EXTT6=
EXTT7=
EXTT8=
EXTT9=
EXTT10=
PLAYORDER=
